<svg width="20" height="20" viewBox="0 0 20 20" fill="none" xmlns="http://www.w3.org/2000/svg">
<path d="M2.99707 5.5C2.99707 4.11929 4.11636 3 5.49707 3H14.4971C15.8778 3 16.9971 4.11929 16.9971 5.5V6H17V7H16.9971V14.5C16.9971 15.8807 15.8778 17 14.4971 17H5.49707C4.11636 17 2.99707 15.8807 2.99707 14.5V5.5ZM15.9971 6V5.5C15.9971 4.67157 15.3255 4 14.4971 4H5.49707C4.66864 4 3.99707 4.67157 3.99707 5.5V6H15.9971ZM3.99707 7V14.5C3.99707 15.3284 4.66864 16 5.49707 16H14.4971C15.3255 16 15.9971 15.3284 15.9971 14.5V7H3.99707ZM5.5 8C5.22386 8 5 8.22386 5 8.5V12.5C5 12.7761 5.22386 13 5.5 13H9.5C9.77614 13 10 12.7761 10 12.5V8.5C10 8.22386 9.77614 8 9.5 8H5.5ZM9 9V12H6V9H9Z" fill="#212121"/>
</svg>
