<svg width="16" height="16" viewBox="0 0 16 16" fill="none" xmlns="http://www.w3.org/2000/svg">
    <path
        d="M4.5 2C3.11929 2 2 3.11929 2 4.5V9.5C2 10.8807 3.11929 12 4.5 12H9.5C10.8807 12 12 10.8807 12 9.5V4.5C12 3.11929 10.8807 2 9.5 2H4.5ZM10.9146 4H3.08535C3.29127 3.4174 3.84689 3 4.5 3H9.5C10.1531 3 10.7087 3.4174 10.9146 4ZM3 5H11V9.5C11 10.3284 10.3284 11 9.5 11H4.5C3.67157 11 3 10.3284 3 9.5V5ZM6.50018 13.9999C5.68227 13.9999 4.9561 13.6072 4.5 12.9999H10.0002C11.657 12.9999 13.0002 11.6568 13.0002 9.99994V4.49976C13.6074 4.95586 14.0002 5.68203 14.0002 6.49994V9.99994C14.0002 12.2091 12.2093 13.9999 10.0002 13.9999H6.50018Z"
        fill="#dedede"
        stroke="#dedede"
        stroke-width="0.5" />
</svg>