<svg width="16" height="16" viewBox="0 0 16 16" fill="none" xmlns="http://www.w3.org/2000/svg">
    <path
        d="M4.5 2C3.11929 2 2 3.11929 2 4.5V11.5C2 12.8807 3.11929 14 4.5 14H6V13H4.5C3.67157 13 3 12.3284 3 11.5V6H14V4.5C14 3.11929 12.8807 2 11.5 2H4.5ZM13 5H3V4.5C3 3.67157 3.67157 3 4.5 3H11.5C12.3284 3 13 3.67157 13 4.5V5ZM12.75 7H14.25C15.2165 7 16 7.7835 16 8.75V14C16 15.1046 15.1046 16 14 16H8.75C7.7835 16 7 15.2165 7 14.25V12.75C7 11.7835 7.7835 11 8.75 11H11V8.75C11 7.7835 11.7835 7 12.75 7ZM11 12H8.75C8.33579 12 8 12.3358 8 12.75V14.25C8 14.6642 8.33579 15 8.75 15H11V12ZM12 15H14C14.5523 15 15 14.5523 15 14V12H12V15ZM12 11H15V8.75C15 8.33579 14.6642 8 14.25 8H12.75C12.3358 8 12 8.33579 12 8.75V11Z"
        fill="#dedede"
        stroke="#dedede"
        stroke-width="0.5" />
</svg>