<svg width="20" height="20" viewBox="0 0 20 20" fill="none" xmlns="http://www.w3.org/2000/svg">
    <path
        d="M7.00383 3.00001C7.22848 3.00173 7.4244 3.15308 7.48281 3.37001L10.526 14.6733L13.0211 6.35633C13.0828 6.15078 13.2687 6.0075 13.4832 6.00028C13.6976 5.99306 13.8928 6.12351 13.9682 6.32444L15.3465 10H17.5C17.7761 10 18 10.2239 18 10.5C18 10.7761 17.7761 11 17.5 11H15C14.7916 11 14.605 10.8707 14.5318 10.6756L13.5527 8.06447L10.9789 16.6437C10.9147 16.8577 10.7163 17.0031 10.4929 16.9999C10.2695 16.9968 10.0753 16.8457 10.0172 16.63L6.98569 5.37012L5.48076 10.6374C5.41943 10.852 5.22324 11 5 11H2.5C2.22386 11 2 10.7761 2 10.5C2 10.2239 2.22386 10 2.5 10H4.62285L6.51924 3.36264C6.58096 3.14662 6.77917 2.9983 7.00383 3.00001Z"
        fill="#212121"
        stroke="#212121"
        stroke-width="1" />
</svg>