<svg width="20" height="20" viewBox="0 0 20 20" fill="none" xmlns="http://www.w3.org/2000/svg">
    <path
        d="M1.9105 7.38266C2.27979 6.24053 2.88814 5.19213 3.69084 4.30364C3.82658 4.15339 4.03954 4.09984 4.2302 4.16802L6.14848 4.85392C6.66856 5.03977 7.24082 4.76883 7.42668 4.24875C7.44495 4.19762 7.45903 4.14507 7.46876 4.09173L7.83422 2.08573C7.87055 1.88627 8.02373 1.7285 8.22203 1.6863C8.80222 1.5628 9.39709 1.5 9.99977 1.5C10.6021 1.5 11.1966 1.56273 11.7765 1.68607C11.9747 1.72824 12.1279 1.88591 12.1643 2.08529L12.5308 4.09165C12.6298 4.63497 13.1506 4.9951 13.6939 4.89601C13.7474 4.88627 13.7999 4.87219 13.851 4.85395L15.7693 4.16802C15.96 4.09984 16.173 4.15339 16.3087 4.30364C17.1114 5.19213 17.7197 6.24053 18.089 7.38266C18.1513 7.57534 18.0913 7.78658 17.9369 7.91764L16.3821 9.23773C15.9611 9.5952 15.9096 10.2263 16.267 10.6473C16.3022 10.6887 16.3407 10.7271 16.382 10.7623L17.9369 12.0824C18.0913 12.2134 18.1513 12.4247 18.089 12.6173C17.7197 13.7595 17.1114 14.8079 16.3087 15.6964C16.173 15.8466 15.96 15.9002 15.7693 15.832L13.8511 15.1461C13.331 14.9602 12.7587 15.2312 12.5729 15.7512C12.5546 15.8024 12.5405 15.8549 12.5307 15.9085L12.1643 17.9147C12.1279 18.1141 11.9747 18.2718 11.7765 18.3139C11.1966 18.4373 10.6021 18.5 9.99977 18.5C9.39709 18.5 8.80222 18.4372 8.22203 18.3137C8.02373 18.2715 7.87055 18.1137 7.83422 17.9143L7.46877 15.9084C7.36969 15.365 6.84891 15.0049 6.30559 15.104C6.25216 15.1137 6.19962 15.1278 6.14857 15.1461L4.2302 15.832C4.03954 15.9002 3.82658 15.8466 3.69084 15.6964C2.88814 14.8079 2.27979 13.7595 1.9105 12.6173C1.8482 12.4247 1.90828 12.2134 2.06265 12.0824L3.61749 10.7623C4.03848 10.4048 4.08997 9.77373 3.7325 9.35274C3.69735 9.31135 3.65888 9.27288 3.61751 9.23775L2.06265 7.91764C1.90828 7.78658 1.8482 7.57534 1.9105 7.38266ZM2.97105 7.37709L4.26475 8.47546C4.34754 8.54576 4.42447 8.62269 4.49477 8.70548C5.20971 9.54746 5.10673 10.8096 4.26472 11.5246L2.97105 12.6229C3.2631 13.4051 3.68455 14.1322 4.21599 14.7751L5.81197 14.2044C5.91425 14.1679 6.01933 14.1397 6.12618 14.1202C7.21283 13.922 8.25438 14.6423 8.45256 15.729L8.75653 17.3975C9.1644 17.4655 9.57976 17.5 9.99977 17.5C10.4195 17.5 10.8346 17.4656 11.2422 17.3976L11.547 15.7289C11.5665 15.6221 11.5946 15.517 11.6312 15.4147C12.0029 14.3746 13.1474 13.8327 14.1877 14.2044L15.7835 14.7751C16.315 14.1322 16.7364 13.4051 17.0285 12.6229L15.7348 11.5245C15.652 11.4542 15.5751 11.3773 15.5048 11.2945C14.7898 10.4525 14.8928 9.1904 15.7348 8.47544L17.0285 7.37709C16.7364 6.59486 16.315 5.86783 15.7835 5.22494L14.1876 5.79559C14.0853 5.83214 13.9802 5.8603 13.8734 5.87979C12.7867 6.07796 11.7452 5.3577 11.547 4.27119L11.2422 2.60235C10.8346 2.53443 10.4195 2.5 9.99977 2.5C9.57976 2.5 9.1644 2.53448 8.75653 2.60249L8.45255 4.27105C8.43306 4.37791 8.4049 4.48299 8.36835 4.58527C7.99665 5.62542 6.85212 6.1673 5.81188 5.79556L4.21599 5.22494C3.68455 5.86783 3.2631 6.59486 2.97105 7.37709ZM7.49977 10C7.49977 8.61929 8.61906 7.5 9.99977 7.5C11.3805 7.5 12.4998 8.61929 12.4998 10C12.4998 11.3807 11.3805 12.5 9.99977 12.5C8.61906 12.5 7.49977 11.3807 7.49977 10ZM8.49977 10C8.49977 10.8284 9.17134 11.5 9.99977 11.5C10.8282 11.5 11.4998 10.8284 11.4998 10C11.4998 9.17157 10.8282 8.5 9.99977 8.5C9.17134 8.5 8.49977 9.17157 8.49977 10Z"
        fill="#212121"
        stroke="#212121"
        stroke-width="1" />
</svg>