<svg width="20" height="20" viewBox="0 0 20 20" fill="none" xmlns="http://www.w3.org/2000/svg">
<path d="M2.85355 2.14645L17.8536 17.1464C18.0488 17.3417 18.0488 17.6583 17.8536 17.8536C17.6583 18.0488 17.3417 18.0488 17.1464 17.8536L15.8775 16.5846C15.482 16.8471 15.0074 17 14.4971 17H5.49707C4.11636 17 2.99707 15.8807 2.99707 14.5V5.5C2.99707 4.9897 3.14996 4.51511 3.41244 4.11954L2.14645 2.85355C1.95118 2.65829 1.95118 2.34171 2.14645 2.14645C2.34171 1.95118 2.65829 1.95118 2.85355 2.14645ZM15.1458 15.8529L10 10.7071V12.5C10 12.7761 9.77614 13 9.5 13H5.5C5.22386 13 5 12.7761 5 12.5V8.5C5 8.22386 5.22386 8 5.5 8H7.29289L6.29289 7H3.99707V14.5C3.99707 15.3284 4.66864 16 5.49707 16H14.4971C14.7294 16 14.9494 15.9472 15.1458 15.8529ZM5.29289 6L4.14421 4.85131C4.0499 5.04763 3.99707 5.26765 3.99707 5.5V6H5.29289ZM8.29289 9H6V12H9V9.70711L8.29289 9ZM15.9971 6H8.12134L9.12134 7H15.9971V13.8757L16.9726 14.8513C16.9887 14.7365 16.9971 14.6192 16.9971 14.5V7H17V6H16.9971V5.5C16.9971 4.11929 15.8778 3 14.4971 3H5.49707C5.37785 3 5.26059 3.00834 5.14582 3.02448L6.12134 4H14.4971C15.3255 4 15.9971 4.67157 15.9971 5.5V6Z" fill="#212121"/>
</svg>
