<svg width="20" height="20" viewBox="0 0 20 20" fill="none" xmlns="http://www.w3.org/2000/svg">
<path d="M10.5 2.5C10.5 2.22386 10.2761 2 10 2C9.72386 2 9.5 2.22386 9.5 2.5V8.5C9.5 8.77614 9.72386 9 10 9C10.2761 9 10.5 8.77614 10.5 8.5V2.5ZM13.7432 4.00089C13.5039 3.86307 13.1982 3.94533 13.0604 4.18462C12.9226 4.42391 13.0048 4.72962 13.2441 4.86744C14.4843 5.58172 15.454 6.68534 16.0029 8.00706C16.5518 9.32878 16.6492 10.7947 16.2798 12.1774C15.9105 13.5601 15.0952 14.7822 13.9603 15.6542C12.8255 16.5262 11.4346 16.9993 10.0034 17C8.57224 17.0008 7.18084 16.5291 6.04508 15.6584C4.90932 14.7876 4.0927 13.5663 3.72193 12.184C3.35115 10.8017 3.44695 9.33564 3.99446 8.01335C4.54197 6.69105 5.51058 5.58642 6.75 4.87084C6.98915 4.73277 7.07109 4.42697 6.93302 4.18783C6.79495 3.94868 6.48915 3.86674 6.25 4.00481C4.8199 4.83048 3.70227 6.10506 3.07053 7.63078C2.43879 9.15651 2.32825 10.8481 2.75607 12.443C3.18388 14.038 4.12613 15.4472 5.43663 16.4519C6.74712 17.4567 8.35259 18.0009 10.0039 18C11.6553 17.9991 13.2602 17.4533 14.5696 16.4472C15.879 15.441 16.8198 14.0309 17.246 12.4355C17.6721 10.84 17.5598 9.1486 16.9265 7.62353C16.2931 6.09847 15.1742 4.82507 13.7432 4.00089Z" fill="#212121"/>
</svg>
